{
  "accessors": [
    {
      "bufferView": 2,
      "componentType": 5126,
      "count": 1124,
      "max": [
        -6.434294700622559,
        26.78582000732422,
        4.354377746582031
      ],
      "min": [
        -38.397850036621094,
        -2.5324230194091797,
        -4.3726959228515625
      ],
      "type": "VEC3"
    },
    {
      "bufferView": 2,
      "byteOffset": 13488,
      "componentType": 5126,
      "count": 1124,
      "max": [
        1.0,
        1.0,
        1.0
      ],
      "min": [
        -1.0,
        -1.0,
        -1.0
      ],
      "type": "VEC3"
    },
    {
      "bufferView": 1,
      "componentType": 5126,
      "count": 1124,
      "max": [
        0.998008131980896,
        0.9154369235038757
      ],
      "min": [
        0.00199203216470778,
        0.0018272193847224116
      ],
      "type": "VEC2"
    },
    {
      "bufferView": 0,
      "componentType": 5125,
      "count": 3666,
      "type": "SCALAR"
    },
    {
      "bufferView": 2,
      "byteOffset": 26976,
      "componentType": 5126,
      "count": 3592,
      "max": [
        43.860198974609375,
        -1.008052110671997,
        49.83992004394531
      ],
      "min": [
        -43.860198974609375,
        -26.78582191467285,
        -49.83991241455078
      ],
      "type": "VEC3"
    },
    {
      "bufferView": 2,
      "byteOffset": 70080,
      "componentType": 5126,
      "count": 3592,
      "max": [
        1.0,
        1.0,
        1.0
      ],
      "min": [
        -1.0,
        -1.0,
        -1.0
      ],
      "type": "VEC3"
    },
    {
      "bufferView": 1,
      "byteOffset": 8992,
      "componentType": 5126,
      "count": 3592,
      "max": [
        0.9246406555175781,
        0.9980080723762512
      ],
      "min": [
        0.001845590304583311,
        0.00199203216470778
      ],
      "type": "VEC2"
    },
    {
      "bufferView": 0,
      "byteOffset": 14664,
      "componentType": 5125,
      "count": 14544,
      "type": "SCALAR"
    }
  ],
  "asset": {
    "extras": {
      "author": "OliverMatheGames (https://sketchfab.com/OliverMatheGames)",
      "license": "CC-BY-4.0 (http://creativecommons.org/licenses/by/4.0/)",
      "source": "https://sketchfab.com/3d-models/bathroom-sink-01-2568c7d17d894bc7974b62cf93da0b48",
      "title": "Bathroom Sink 01"
    },
    "generator": "Sketchfab-14.70.0",
    "version": "2.0"
  },
  "bufferViews": [
    {
      "buffer": 0,
      "byteLength": 72840,
      "name": "floatBufferViews",
      "target": 34963
    },
    {
      "buffer": 0,
      "byteLength": 37728,
      "byteOffset": 72840,
      "byteStride": 8,
      "name": "floatBufferViews",
      "target": 34962
    },
    {
      "buffer": 0,
      "byteLength": 113184,
      "byteOffset": 110568,
      "byteStride": 12,
      "name": "floatBufferViews",
      "target": 34962
    }
  ],
  "buffers": [
    {
      "byteLength": 223752,
      "uri": "scene.bin"
    }
  ],
  "extensionsUsed": [
    "KHR_materials_specular"
  ],
  "materials": [
    {
      "doubleSided": true,
      "extensions": {
        "KHR_materials_specular": {
          "specularColorFactor": [
            1.0,
            1.0,
            1.0
          ],
          "specularFactor": 0.2605722226962977
        }
      },
      "name": "lambert3",
      "pbrMetallicRoughness": {
        "roughnessFactor": 0.44685545708329777
      }
    },
    {
      "doubleSided": true,
      "extensions": {
        "KHR_materials_specular": {
          "specularColorFactor": [
            1.0,
            1.0,
            1.0
          ],
          "specularFactor": 0.27276273603881457
        }
      },
      "name": "lambert2",
      "pbrMetallicRoughness": {
        "baseColorFactor": [
          0.32152478940888196,
          0.32152478940888196,
          0.32152478940888196,
          1.0
        ],
        "metallicFactor": 0.0,
        "roughnessFactor": 0.22742621691799447
      }
    }
  ],
  "meshes": [
    {
      "name": "Sink_01_lambert3_0",
      "primitives": [
        {
          "attributes": {
            "NORMAL": 1,
            "POSITION": 0,
            "TEXCOORD_0": 2
          },
          "indices": 3,
          "material": 0,
          "mode": 4
        }
      ]
    },
    {
      "name": "Sink_01_lambert2_0",
      "primitives": [
        {
          "attributes": {
            "NORMAL": 5,
            "POSITION": 4,
            "TEXCOORD_0": 6
          },
          "indices": 7,
          "material": 1,
          "mode": 4
        }
      ]
    }
  ],
  "nodes": [
    {
      "children": [
        1
      ],
      "matrix": [
        1.0,
        0.0,
        0.0,
        0.0,
        0.0,
        2.220446049250313e-16,
        -1.0,
        0.0,
        0.0,
        1.0,
        2.220446049250313e-16,
        0.0,
        0.0,
        0.0,
        0.0,
        1.0
      ],
      "name": "Sketchfab_model"
    },
    {
      "children": [
        2
      ],
      "matrix": [
        0.009999999776482582,
        0.0,
        0.0,
        0.0,
        0.0,
        0.0,
        0.009999999776482582,
        0.0,
        0.0,
        -0.009999999776482582,
        0.0,
        0.0,
        0.0,
        0.0,
        0.0,
        1.0
      ],
      "name": "e026cc7993014cfc9d3d17beff86b73a.fbx"
    },
    {
      "children": [
        3
      ],
      "name": "RootNode"
    },
    {
      "children": [
        4,
        5
      ],
      "name": "Sink_01"
    },
    {
      "mesh": 0,
      "name": "Sink_01_lambert3_0"
    },
    {
      "mesh": 1,
      "name": "Sink_01_lambert2_0"
    }
  ],
  "scene": 0,
  "scenes": [
    {
      "name": "Sketchfab_Scene",
      "nodes": [
        0
      ]
    }
  ]
}
