{
  "accessors": [
    {
      "bufferView": 2,
      "componentType": 5126,
      "count": 3256,
      "max": [
        1.3202810287475586,
        1.1248300075531006,
        0.9578440189361572
      ],
      "min": [
        0.013597000390291214,
        -0.901278018951416,
        -0.4488759934902191
      ],
      "type": "VEC3"
    },
    {
      "bufferView": 2,
      "byteOffset": 39072,
      "componentType": 5126,
      "count": 3256,
      "max": [
        0.9999542236328125,
        0.9963811039924622,
        0.9994380474090576
      ],
      "min": [
        -0.9973960518836975,
        -0.9966571927070618,
        -0.9999154806137085
      ],
      "type": "VEC3"
    },
    {
      "bufferView": 1,
      "componentType": 5126,
      "count": 3256,
      "max": [
        0.9363589882850647,
        0.9291579723358154
      ],
      "min": [
        0.9272879958152771,
        0.917868971824646
      ],
      "type": "VEC2"
    },
    {
      "bufferView": 0,
      "componentType": 5125,
      "count": 19008,
      "type": "SCALAR"
    },
    {
      "bufferView": 2,
      "byteOffset": 78144,
      "componentType": 5126,
      "count": 22711,
      "max": [
        1.745257019996643,
        1.2699949741363525,
        1.591783046722412
      ],
      "min": [
        -1.8660310506820679,
        -1.044381022453308,
        -1.0283910036087036
      ],
      "type": "VEC3"
    },
    {
      "bufferView": 2,
      "byteOffset": 350676,
      "componentType": 5126,
      "count": 22711,
      "max": [
        0.9999984502792358,
        0.9999960660934448,
        0.9999783039093018
      ],
      "min": [
        -0.9999984502792358,
        -0.9999998807907104,
        -0.9999955892562866
      ],
      "type": "VEC3"
    },
    {
      "bufferView": 1,
      "byteOffset": 26048,
      "componentType": 5126,
      "count": 22711,
      "max": [
        0.9868829846382141,
        0.9784079790115356
      ],
      "min": [
        0.013057000003755093,
        0.010001000016927719
      ],
      "type": "VEC2"
    },
    {
      "bufferView": 0,
      "byteOffset": 76032,
      "componentType": 5125,
      "count": 128400,
      "type": "SCALAR"
    },
    {
      "bufferView": 2,
      "byteOffset": 623208,
      "componentType": 5126,
      "count": 12039,
      "max": [
        1.3977030515670776,
        1.246345043182373,
        -0.08662500232458115
      ],
      "min": [
        -0.4961479902267456,
        -1.0207979679107666,
        -0.9815729856491089
      ],
      "type": "VEC3"
    },
    {
      "bufferView": 2,
      "byteOffset": 767676,
      "componentType": 5126,
      "count": 12039,
      "max": [
        0.9999918937683105,
        0.9999547004699707,
        0.9999958276748657
      ],
      "min": [
        -0.9999984502792358,
        -0.9999802112579346,
        -0.999998927116394
      ],
      "type": "VEC3"
    },
    {
      "bufferView": 1,
      "byteOffset": 207736,
      "componentType": 5126,
      "count": 12039,
      "max": [
        0.9701619744300842,
        0.9683539867401123
      ],
      "min": [
        0.9272000193595886,
        0.929531991481781
      ],
      "type": "VEC2"
    },
    {
      "bufferView": 0,
      "byteOffset": 589632,
      "componentType": 5125,
      "count": 69360,
      "type": "SCALAR"
    },
    {
      "bufferView": 2,
      "byteOffset": 912144,
      "componentType": 5126,
      "count": 3608,
      "max": [
        1.2276359796524048,
        1.0391069650650024,
        0.8511530160903931
      ],
      "min": [
        -1.4469419717788696,
        -0.8156570196151733,
        -1.0280619859695435
      ],
      "type": "VEC3"
    },
    {
      "bufferView": 2,
      "byteOffset": 955440,
      "componentType": 5126,
      "count": 3608,
      "max": [
        0.9996872544288635,
        0.9999649524688721,
        0.9998782873153687
      ],
      "min": [
        -0.9999984502792358,
        -0.9999667406082153,
        -0.9998500347137451
      ],
      "type": "VEC3"
    },
    {
      "bufferView": 1,
      "byteOffset": 304048,
      "componentType": 5126,
      "count": 3608,
      "max": [
        0.9353910088539124,
        0.9284899830818176
      ],
      "min": [
        0.9282249808311462,
        0.9185310006141663
      ],
      "type": "VEC2"
    },
    {
      "bufferView": 0,
      "byteOffset": 867072,
      "componentType": 5125,
      "count": 21120,
      "type": "SCALAR"
    }
  ],
  "asset": {
    "extras": {
      "author": "ANDRIANIAINAToky (https://sketchfab.com/ANDRIANIAINAToky)",
      "license": "CC-BY-4.0 (http://creativecommons.org/licenses/by/4.0/)",
      "source": "https://sketchfab.com/3d-models/motorcycle-helmet-ca804fced1fb489fb88b69f9d27ede15",
      "title": "Motorcycle helmet"
    },
    "generator": "Sketchfab-14.87.0",
    "version": "2.0"
  },
  "bufferViews": [
    {
      "buffer": 0,
      "byteLength": 951552,
      "name": "floatBufferViews",
      "target": 34963
    },
    {
      "buffer": 0,
      "byteLength": 332912,
      "byteOffset": 951552,
      "byteStride": 8,
      "name": "floatBufferViews",
      "target": 34962
    },
    {
      "buffer": 0,
      "byteLength": 998736,
      "byteOffset": 1284464,
      "byteStride": 12,
      "name": "floatBufferViews",
      "target": 34962
    }
  ],
  "buffers": [
    {
      "byteLength": 2283200,
      "uri": "scene.bin"
    }
  ],
  "extensionsUsed": [
    "KHR_materials_specular"
  ],
  "images": [
    {
      "uri": "textures/plastic_1_baseColor.png"
    }
  ],
  "materials": [
    {
      "doubleSided": true,
      "name": "metal",
      "pbrMetallicRoughness": {
        "baseColorFactor": [
          0.7420974997257134,
          0.7420974997257134,
          0.7420974997257134,
          1.0
        ],
        "roughnessFactor": 0.0
      }
    },
    {
      "doubleSided": true,
      "extensions": {
        "KHR_materials_specular": {
          "specularColorFactor": [
            1.0,
            1.0,
            1.0
          ],
          "specularFactor": 0.4190488961490168
        }
      },
      "name": "plastic_1",
      "pbrMetallicRoughness": {
        "baseColorTexture": {
          "index": 0
        },
        "metallicFactor": 0.0,
        "roughnessFactor": 0.1542831368628934
      }
    },
    {
      "doubleSided": true,
      "name": "plastic_2",
      "pbrMetallicRoughness": {
        "baseColorFactor": [
          0.0006849502726102096,
          0.0006303967110748832,
          0.0006303967110748832,
          1.0
        ],
        "metallicFactor": 0.0,
        "roughnessFactor": 0.25790250027428663
      }
    },
    {
      "doubleSided": true,
      "name": "rubber",
      "pbrMetallicRoughness": {
        "baseColorFactor": [
          0.0003424751363051048,
          0.0003424751363051048,
          0.0003424751363051048,
          1.0
        ],
        "metallicFactor": 0.0,
        "roughnessFactor": 0.5287635162316685
      }
    }
  ],
  "meshes": [
    {
      "name": "Object_0",
      "primitives": [
        {
          "attributes": {
            "NORMAL": 1,
            "POSITION": 0,
            "TEXCOORD_0": 2
          },
          "indices": 3,
          "material": 0,
          "mode": 4
        }
      ]
    },
    {
      "name": "Object_1",
      "primitives": [
        {
          "attributes": {
            "NORMAL": 5,
            "POSITION": 4,
            "TEXCOORD_0": 6
          },
          "indices": 7,
          "material": 1,
          "mode": 4
        }
      ]
    },
    {
      "name": "Object_2",
      "primitives": [
        {
          "attributes": {
            "NORMAL": 9,
            "POSITION": 8,
            "TEXCOORD_0": 10
          },
          "indices": 11,
          "material": 2,
          "mode": 4
        }
      ]
    },
    {
      "name": "Object_3",
      "primitives": [
        {
          "attributes": {
            "NORMAL": 13,
            "POSITION": 12,
            "TEXCOORD_0": 14
          },
          "indices": 15,
          "material": 3,
          "mode": 4
        }
      ]
    }
  ],
  "nodes": [
    {
      "children": [
        1
      ],
      "matrix": [
        1.0,
        0.0,
        0.0,
        0.0,
        0.0,
        2.220446049250313e-16,
        -1.0,
        0.0,
        0.0,
        1.0,
        2.220446049250313e-16,
        0.0,
        0.0,
        0.0,
        0.0,
        1.0
      ],
      "name": "Sketchfab_model"
    },
    {
      "children": [
        2,
        3,
        4,
        5
      ],
      "name": "motors helmet.obj.cleaner.materialmerger.gles"
    },
    {
      "mesh": 0,
      "name": "Object_2"
    },
    {
      "mesh": 1,
      "name": "Object_3"
    },
    {
      "mesh": 2,
      "name": "Object_4"
    },
    {
      "mesh": 3,
      "name": "Object_5"
    }
  ],
  "samplers": [
    {
      "magFilter": 9729,
      "minFilter": 9987,
      "wrapS": 10497,
      "wrapT": 10497
    }
  ],
  "scene": 0,
  "scenes": [
    {
      "name": "Sketchfab_Scene",
      "nodes": [
        0
      ]
    }
  ],
  "textures": [
    {
      "sampler": 0,
      "source": 0
    }
  ]
}
