{
  "accessors": [
    {
      "bufferView": 2,
      "componentType": 5126,
      "count": 48,
      "max": [
        0.3963020145893097,
        0.9387760162353516,
        -0.38328900933265686
      ],
      "min": [
        -0.4476639926433563,
        -0.5578759908676147,
        -0.4030660092830658
      ],
      "type": "VEC3"
    },
    {
      "bufferView": 2,
      "byteOffset": 576,
      "componentType": 5126,
      "count": 48,
      "max": [
        1.0,
        1.0,
        1.0
      ],
      "min": [
        -1.0,
        -1.0,
        -1.0
      ],
      "type": "VEC3"
    },
    {
      "bufferView": 3,
      "componentType": 5126,
      "count": 48,
      "max": [
        0.0,
        0.5886973142623901,
        1.0,
        1.0
      ],
      "min": [
        -0.9999994039535522,
        -1.0,
        -0.9678656458854675,
        -1.0
      ],
      "type": "VEC4"
    },
    {
      "bufferView": 1,
      "componentType": 5126,
      "count": 48,
      "max": [
        0.9861080050468445,
        0.9847249984741211
      ],
      "min": [
        0.006892260164022446,
        0.010924000293016434
      ],
      "type": "VEC2"
    },
    {
      "bufferView": 0,
      "componentType": 5125,
      "count": 72,
      "type": "SCALAR"
    },
    {
      "bufferView": 2,
      "byteOffset": 1152,
      "componentType": 5126,
      "count": 24100,
      "max": [
        0.4777680039405823,
        0.8971869945526123,
        0.40869298577308655
      ],
      "min": [
        -0.48282501101493835,
        -1.0,
        -0.41185900568962097
      ],
      "type": "VEC3"
    },
    {
      "bufferView": 2,
      "byteOffset": 290352,
      "componentType": 5126,
      "count": 24100,
      "max": [
        1.0,
        1.0,
        1.0
      ],
      "min": [
        -1.0,
        -1.0,
        -1.0
      ],
      "type": "VEC3"
    },
    {
      "bufferView": 3,
      "byteOffset": 768,
      "componentType": 5126,
      "count": 24100,
      "max": [
        1.0,
        1.0,
        1.0,
        1.0
      ],
      "min": [
        -1.0,
        -1.0,
        -1.0,
        -1.0
      ],
      "type": "VEC4"
    },
    {
      "bufferView": 1,
      "byteOffset": 384,
      "componentType": 5126,
      "count": 24100,
      "max": [
        0.9948329925537109,
        0.9940900206565857
      ],
      "min": [
        0.011586099863052368,
        0.0011090999469161034
      ],
      "type": "VEC2"
    },
    {
      "bufferView": 0,
      "byteOffset": 288,
      "componentType": 5125,
      "count": 41817,
      "type": "SCALAR"
    },
    {
      "bufferView": 2,
      "byteOffset": 579552,
      "componentType": 5126,
      "count": 11434,
      "max": [
        0.4913089871406555,
        1.0,
        0.42877399921417236
      ],
      "min": [
        -0.4913089871406555,
        -0.800682008266449,
        -0.42877399921417236
      ],
      "type": "VEC3"
    },
    {
      "bufferView": 2,
      "byteOffset": 716760,
      "componentType": 5126,
      "count": 11434,
      "max": [
        1.0,
        1.0,
        1.0
      ],
      "min": [
        -1.0,
        -1.0,
        -1.0
      ],
      "type": "VEC3"
    },
    {
      "bufferView": 1,
      "byteOffset": 193184,
      "componentType": 5126,
      "count": 11434,
      "max": [
        0.9961119890213013,
        0.9911739826202393
      ],
      "min": [
        0.0031597099732607603,
        0.004563719965517521
      ],
      "type": "VEC2"
    },
    {
      "bufferView": 0,
      "byteOffset": 167556,
      "componentType": 5125,
      "count": 26514,
      "type": "SCALAR"
    },
    {
      "bufferView": 2,
      "byteOffset": 853968,
      "componentType": 5126,
      "count": 65532,
      "max": [
        0.37287598848342896,
        0.30112800002098083,
        0.15610599517822266
      ],
      "min": [
        -0.18194299936294556,
        -0.418146014213562,
        -0.2482530027627945
      ],
      "type": "VEC3"
    },
    {
      "bufferView": 2,
      "byteOffset": 1640352,
      "componentType": 5126,
      "count": 65532,
      "max": [
        0.9994803667068481,
        0.9980480074882507,
        0.9994891285896301
      ],
      "min": [
        -0.9994803667068481,
        -0.999585747718811,
        -0.9999710917472839
      ],
      "type": "VEC3"
    },
    {
      "bufferView": 3,
      "byteOffset": 386368,
      "componentType": 5126,
      "count": 65532,
      "max": [
        0.9999463558197021,
        0.9967239499092102,
        0.9980024695396423,
        1.0
      ],
      "min": [
        -0.9999691843986511,
        -0.9999436736106873,
        -0.9997080564498901,
        -1.0
      ],
      "type": "VEC4"
    },
    {
      "bufferView": 1,
      "byteOffset": 284656,
      "componentType": 5126,
      "count": 65532,
      "max": [
        0.9897249937057495,
        0.9967970252037048
      ],
      "min": [
        0.0,
        0.0
      ],
      "type": "VEC2"
    },
    {
      "bufferView": 0,
      "byteOffset": 273612,
      "componentType": 5125,
      "count": 269040,
      "type": "SCALAR"
    },
    {
      "bufferView": 2,
      "byteOffset": 2426736,
      "componentType": 5126,
      "count": 65532,
      "max": [
        0.3649669885635376,
        0.8694000244140625,
        0.22494199872016907
      ],
      "min": [
        -0.1755570024251938,
        0.19365300238132477,
        -0.2482530027627945
      ],
      "type": "VEC3"
    },
    {
      "bufferView": 2,
      "byteOffset": 3213120,
      "componentType": 5126,
      "count": 65532,
      "max": [
        0.998487651348114,
        0.9980483651161194,
        0.9985962510108948
      ],
      "min": [
        -0.9984875917434692,
        -0.9995856285095215,
        -0.9955471158027649
      ],
      "type": "VEC3"
    },
    {
      "bufferView": 3,
      "byteOffset": 1434880,
      "componentType": 5126,
      "count": 65532,
      "max": [
        0.9999787211418152,
        0.9999994039535522,
        0.9999997615814209,
        1.0
      ],
      "min": [
        -0.9999780654907227,
        -0.9999865889549255,
        -0.9999842643737793,
        -1.0
      ],
      "type": "VEC4"
    },
    {
      "bufferView": 1,
      "byteOffset": 808912,
      "componentType": 5126,
      "count": 65532,
      "max": [
        0.9897249937057495,
        0.9743829965591431
      ],
      "min": [
        0.0,
        0.0
      ],
      "type": "VEC2"
    },
    {
      "bufferView": 0,
      "byteOffset": 1349772,
      "componentType": 5125,
      "count": 250851,
      "type": "SCALAR"
    },
    {
      "bufferView": 2,
      "byteOffset": 3999504,
      "componentType": 5126,
      "count": 35586,
      "max": [
        0.3649669885635376,
        0.4916509985923767,
        0.22494199872016907
      ],
      "min": [
        -0.1755570024251938,
        0.19364400207996368,
        -0.2482530027627945
      ],
      "type": "VEC3"
    },
    {
      "bufferView": 2,
      "byteOffset": 4426536,
      "componentType": 5126,
      "count": 35586,
      "max": [
        0.998487651348114,
        0.9980481266975403,
        0.9985962510108948
      ],
      "min": [
        -0.9984875917434692,
        -0.9995856285095215,
        -0.9955471158027649
      ],
      "type": "VEC3"
    },
    {
      "bufferView": 3,
      "byteOffset": 2483392,
      "componentType": 5126,
      "count": 35586,
      "max": [
        0.9996488690376282,
        0.990720808506012,
        0.9980015158653259,
        1.0
      ],
      "min": [
        -0.9999693036079407,
        -0.9981485605239868,
        -0.9997081756591797,
        -1.0
      ],
      "type": "VEC4"
    },
    {
      "bufferView": 1,
      "byteOffset": 1333168,
      "componentType": 5126,
      "count": 35586,
      "max": [
        0.9897249937057495,
        0.8909329771995544
      ],
      "min": [
        0.0,
        0.0
      ],
      "type": "VEC2"
    },
    {
      "bufferView": 0,
      "byteOffset": 2353176,
      "componentType": 5125,
      "count": 136317,
      "type": "SCALAR"
    },
    {
      "bufferView": 2,
      "byteOffset": 4853568,
      "componentType": 5126,
      "count": 5186,
      "max": [
        0.4783959984779358,
        0.9419029951095581,
        0.40469399094581604
      ],
      "min": [
        -0.4746190011501312,
        -0.9667279720306396,
        -0.4187789857387543
      ],
      "type": "VEC3"
    },
    {
      "bufferView": 2,
      "byteOffset": 4915800,
      "componentType": 5126,
      "count": 5186,
      "max": [
        1.0,
        1.0,
        1.0
      ],
      "min": [
        -1.0,
        -1.0,
        -1.0
      ],
      "type": "VEC3"
    },
    {
      "bufferView": 3,
      "byteOffset": 3052768,
      "componentType": 5126,
      "count": 5186,
      "max": [
        1.0,
        1.0,
        1.0,
        1.0
      ],
      "min": [
        -1.0,
        -1.0,
        -1.0,
        -1.0
      ],
      "type": "VEC4"
    },
    {
      "bufferView": 1,
      "byteOffset": 1617856,
      "componentType": 5126,
      "count": 5186,
      "max": [
        0.9897969961166382,
        0.9897440075874329
      ],
      "min": [
        0.015387999825179577,
        0.01025640033185482
      ],
      "type": "VEC2"
    },
    {
      "bufferView": 0,
      "byteOffset": 2898444,
      "componentType": 5125,
      "count": 16878,
      "type": "SCALAR"
    }
  ],
  "asset": {
    "extras": {
      "author": "RasenDan (https://sketchfab.com/RasenDan)",
      "license": "CC-BY-4.0 (http://creativecommons.org/licenses/by/4.0/)",
      "source": "https://sketchfab.com/3d-models/soda-vending-machine-f753a659faae499282e882d63972d4c2",
      "title": "Soda Vending Machine"
    },
    "generator": "Sketchfab-12.66.0",
    "version": "2.0"
  },
  "bufferViews": [
    {
      "buffer": 0,
      "byteLength": 2965956,
      "name": "floatBufferViews",
      "target": 34963
    },
    {
      "buffer": 0,
      "byteLength": 1659344,
      "byteOffset": 2965956,
      "byteStride": 8,
      "name": "floatBufferViews",
      "target": 34962
    },
    {
      "buffer": 0,
      "byteLength": 4978032,
      "byteOffset": 4625300,
      "byteStride": 12,
      "name": "floatBufferViews",
      "target": 34962
    },
    {
      "buffer": 0,
      "byteLength": 3135744,
      "byteOffset": 9603332,
      "byteStride": 16,
      "name": "floatBufferViews",
      "target": 34962
    }
  ],
  "buffers": [
    {
      "byteLength": 12739076,
      "uri": "scene.bin"
    }
  ],
  "extensionsUsed": [
    "KHR_materials_clearcoat"
  ],
  "images": [
    {
      "uri": "textures/body_baseColor.jpeg"
    },
    {
      "uri": "textures/body_metallicRoughness.png"
    },
    {
      "uri": "textures/body_emissive.jpeg"
    },
    {
      "uri": "textures/body_normal.png"
    },
    {
      "uri": "textures/drinks_baseColor.jpeg"
    },
    {
      "uri": "textures/drinks_metallicRoughness.png"
    },
    {
      "uri": "textures/drinks_normal.png"
    },
    {
      "uri": "textures/buttons_baseColor.jpeg"
    },
    {
      "uri": "textures/buttons_metallicRoughness.png"
    },
    {
      "uri": "textures/lambert1_baseColor.jpeg"
    },
    {
      "uri": "textures/lambert1_metallicRoughness.png"
    },
    {
      "uri": "textures/lambert1_emissive.jpeg"
    },
    {
      "uri": "textures/lambert1_normal.png"
    },
    {
      "uri": "textures/glass_baseColor.png"
    },
    {
      "uri": "textures/glass_metallicRoughness.png"
    },
    {
      "uri": "textures/glass_normal.png"
    }
  ],
  "materials": [
    {
      "doubleSided": true,
      "emissiveFactor": [
        1.0,
        1.0,
        1.0
      ],
      "emissiveTexture": {
        "index": 2
      },
      "name": "body",
      "normalTexture": {
        "index": 3
      },
      "pbrMetallicRoughness": {
        "baseColorTexture": {
          "index": 0
        },
        "metallicRoughnessTexture": {
          "index": 1
        }
      }
    },
    {
      "doubleSided": true,
      "name": "drinks",
      "normalTexture": {
        "index": 6
      },
      "pbrMetallicRoughness": {
        "baseColorTexture": {
          "index": 4
        },
        "metallicRoughnessTexture": {
          "index": 5
        }
      }
    },
    {
      "doubleSided": true,
      "name": "buttons",
      "pbrMetallicRoughness": {
        "baseColorFactor": [
          0.7578125,
          0.7578125,
          0.7578125,
          1.0
        ],
        "baseColorTexture": {
          "index": 7
        },
        "metallicRoughnessTexture": {
          "index": 8
        }
      }
    },
    {
      "doubleSided": true,
      "emissiveFactor": [
        1.0,
        1.0,
        1.0
      ],
      "emissiveTexture": {
        "index": 11
      },
      "name": "lambert1",
      "normalTexture": {
        "index": 12
      },
      "pbrMetallicRoughness": {
        "baseColorTexture": {
          "index": 9
        },
        "metallicRoughnessTexture": {
          "index": 10
        }
      }
    },
    {
      "alphaMode": "BLEND",
      "doubleSided": true,
      "extensions": {
        "KHR_materials_clearcoat": {
          "clearcoatFactor": 1.0,
          "clearcoatRoughnessFactor": 0.04
        }
      },
      "name": "glass",
      "normalTexture": {
        "index": 15
      },
      "pbrMetallicRoughness": {
        "baseColorTexture": {
          "index": 13
        },
        "metallicRoughnessTexture": {
          "index": 14
        }
      }
    }
  ],
  "meshes": [
    {
      "name": "defaultMaterial",
      "primitives": [
        {
          "attributes": {
            "NORMAL": 1,
            "POSITION": 0,
            "TANGENT": 2,
            "TEXCOORD_0": 3
          },
          "indices": 4,
          "material": 4,
          "mode": 4
        }
      ]
    },
    {
      "name": "defaultMaterial",
      "primitives": [
        {
          "attributes": {
            "NORMAL": 6,
            "POSITION": 5,
            "TANGENT": 7,
            "TEXCOORD_0": 8
          },
          "indices": 9,
          "material": 3,
          "mode": 4
        }
      ]
    },
    {
      "name": "defaultMaterial",
      "primitives": [
        {
          "attributes": {
            "NORMAL": 11,
            "POSITION": 10,
            "TEXCOORD_0": 12
          },
          "indices": 13,
          "material": 2,
          "mode": 4
        }
      ]
    },
    {
      "name": "defaultMaterial",
      "primitives": [
        {
          "attributes": {
            "NORMAL": 15,
            "POSITION": 14,
            "TANGENT": 16,
            "TEXCOORD_0": 17
          },
          "indices": 18,
          "material": 1,
          "mode": 4
        }
      ]
    },
    {
      "name": "defaultMaterial",
      "primitives": [
        {
          "attributes": {
            "NORMAL": 20,
            "POSITION": 19,
            "TANGENT": 21,
            "TEXCOORD_0": 22
          },
          "indices": 23,
          "material": 1,
          "mode": 4
        }
      ]
    },
    {
      "name": "defaultMaterial",
      "primitives": [
        {
          "attributes": {
            "NORMAL": 25,
            "POSITION": 24,
            "TANGENT": 26,
            "TEXCOORD_0": 27
          },
          "indices": 28,
          "material": 1,
          "mode": 4
        }
      ]
    },
    {
      "name": "defaultMaterial",
      "primitives": [
        {
          "attributes": {
            "NORMAL": 30,
            "POSITION": 29,
            "TANGENT": 31,
            "TEXCOORD_0": 32
          },
          "indices": 33,
          "material": 0,
          "mode": 4
        }
      ]
    }
  ],
  "nodes": [
    {
      "children": [
        1
      ],
      "matrix": [
        1.0,
        0.0,
        0.0,
        0.0,
        0.0,
        2.220446049250313e-16,
        -1.0,
        0.0,
        0.0,
        1.0,
        2.220446049250313e-16,
        0.0,
        0.0,
        0.0,
        0.0,
        1.0
      ],
      "name": "Sketchfab_model"
    },
    {
      "children": [
        2,
        4,
        6,
        8,
        12
      ],
      "matrix": [
        1.0,
        0.0,
        0.0,
        0.0,
        0.0,
        -4.371139006309477e-08,
        0.999999999999999,
        0.0,
        0.0,
        -0.999999999999999,
        -4.371139006309477e-08,
        0.0,
        0.0,
        0.0,
        0.0,
        1.0
      ],
      "name": "Collada visual scene group"
    },
    {
      "children": [
        3
      ],
      "name": "glass1"
    },
    {
      "mesh": 0,
      "name": "defaultMaterial"
    },
    {
      "children": [
        5
      ],
      "name": "outside_stuf_mostly1"
    },
    {
      "mesh": 1,
      "name": "defaultMaterial"
    },
    {
      "children": [
        7
      ],
      "name": "other_outside_stuff1"
    },
    {
      "mesh": 2,
      "name": "defaultMaterial"
    },
    {
      "children": [
        9,
        10,
        11
      ],
      "name": "soda_can1:soda_can1:soda_can1:SODA_CANS"
    },
    {
      "mesh": 3,
      "name": "defaultMaterial"
    },
    {
      "mesh": 4,
      "name": "defaultMaterial"
    },
    {
      "mesh": 5,
      "name": "defaultMaterial"
    },
    {
      "children": [
        13
      ],
      "name": "sigh:LP_build"
    },
    {
      "mesh": 6,
      "name": "defaultMaterial"
    }
  ],
  "samplers": [
    {
      "magFilter": 9729,
      "minFilter": 9987,
      "wrapS": 10497,
      "wrapT": 10497
    }
  ],
  "scene": 0,
  "scenes": [
    {
      "name": "Sketchfab_Scene",
      "nodes": [
        0
      ]
    }
  ],
  "textures": [
    {
      "sampler": 0,
      "source": 0
    },
    {
      "sampler": 0,
      "source": 1
    },
    {
      "sampler": 0,
      "source": 2
    },
    {
      "sampler": 0,
      "source": 3
    },
    {
      "sampler": 0,
      "source": 4
    },
    {
      "sampler": 0,
      "source": 5
    },
    {
      "sampler": 0,
      "source": 6
    },
    {
      "sampler": 0,
      "source": 7
    },
    {
      "sampler": 0,
      "source": 8
    },
    {
      "sampler": 0,
      "source": 9
    },
    {
      "sampler": 0,
      "source": 10
    },
    {
      "sampler": 0,
      "source": 11
    },
    {
      "sampler": 0,
      "source": 12
    },
    {
      "sampler": 0,
      "source": 13
    },
    {
      "sampler": 0,
      "source": 14
    },
    {
      "sampler": 0,
      "source": 15
    }
  ]
}
